<svg width="100" height="100" viewBox="0 0 100 100" xmlns="http://www.w3.org/2000/svg">
  <g>
    <circle cx="50" cy="50" r="45" fill="#800080" />
    <path d="M50,10 C70,10 90,30 90,50 C90,70 70,90 50,90 C30,90 10,70 10,50 C10,30 30,10 50,10 Z" fill="#660066" />
    <g transform="translate(25, 25) scale(0.5)">
      <path d="M100 10 C 80 10, 70 20, 70 40 C 70 60, 80 70, 100 70 C 120 70, 130 60, 130 40 C 130 20, 120 10, 100 10 z M 95 80 L 95 150 L 105 150 L 105 80 z M 80 150 L 80 170 L 120 170 L 120 150 z" fill="white"/>
    </g>
  </g>
</svg>
